<?xml version="1.0" encoding="UTF-8" standalone="no"?>
<!-- Created with Inkscape (http://www.inkscape.org/) -->

<svg
   xmlns:dc="http://purl.org/dc/elements/1.1/"
   xmlns:cc="http://creativecommons.org/ns#"
   xmlns:rdf="http://www.w3.org/1999/02/22-rdf-syntax-ns#"
   xmlns:svg="http://www.w3.org/2000/svg"
   xmlns="http://www.w3.org/2000/svg"
   xmlns:sodipodi="http://sodipodi.sourceforge.net/DTD/sodipodi-0.dtd"
   xmlns:inkscape="http://www.inkscape.org/namespaces/inkscape"
   width="200"
   height="200"
   viewBox="0 0 52.916665 52.916668"
   version="1.1"
   id="svg8"
   inkscape:export-filename="C:\Users\janch32\Bitová mapa5.png"
   inkscape:export-xdpi="23.999998"
   inkscape:export-ydpi="23.999998"
   inkscape:version="0.92.3 (2405546, 2018-03-11)"
   sodipodi:docname="spotifywebwrapperlogo.svg">
  <defs
     id="defs2" />
  <sodipodi:namedview
     id="base"
     pagecolor="#ffffff"
     bordercolor="#666666"
     borderopacity="1.0"
     inkscape:pageopacity="0.0"
     inkscape:pageshadow="2"
     inkscape:zoom="1.4"
     inkscape:cx="133.05758"
     inkscape:cy="36.924569"
     inkscape:document-units="mm"
     inkscape:current-layer="layer1"
     showgrid="false"
     units="px"
     inkscape:window-width="1151"
     inkscape:window-height="786"
     inkscape:window-x="1943"
     inkscape:window-y="149"
     inkscape:window-maximized="0" />
  <metadata
     id="metadata5">
    <rdf:RDF>
      <cc:Work
         rdf:about="">
        <dc:format>image/svg+xml</dc:format>
        <dc:type
           rdf:resource="http://purl.org/dc/dcmitype/StillImage" />
        <dc:title></dc:title>
      </cc:Work>
    </rdf:RDF>
  </metadata>
  <g
     inkscape:label="Vrstva 1"
     inkscape:groupmode="layer"
     id="layer1"
     transform="translate(0,-244.08332)">
    <rect
       style="fill:#1db954;fill-opacity:1;stroke:none;stroke-width:0.27387589;stroke-opacity:1"
       id="rect4546"
       width="52.916668"
       height="52.916668"
       x="0"
       y="244.08331" />
    <g
       id="g4544"
       transform="matrix(0.88559151,0,0,0.88559151,11.030043,27.967882)"
       style="fill:#ffffff;fill-opacity:1">
      <path
         id="path2"
         d="m 13.701638,269.55891 c -7.5899292,0 -13.73943356,6.14951 -13.73943356,13.73944 0,7.58992 6.14950436,13.73943 13.73943356,13.73943 7.589928,0 13.739432,-6.14951 13.739432,-13.73943 0,-7.58993 -6.149504,-13.73944 -13.739432,-13.73944 z m 9.933389,8.86415 h -3.722944 c -0.371186,-2.02213 -0.969516,-3.81159 -1.72851,-5.24647 2.376702,1.05262 4.304653,2.91963 5.451454,5.24647 z m -9.933389,-6.2049 c 1.030457,0 2.692486,2.28252 3.501339,6.2049 h -7.002679 c 0.808854,-3.92238 2.470882,-6.2049 3.50134,-6.2049 z M 2.6214495,283.29835 c 0,-0.75899 0.077561,-1.50137 0.2216037,-2.21605 h 4.3046531 c -0.055399,0.72576 -0.094181,1.45706 -0.094181,2.21605 0,0.75899 0.038778,1.49028 0.094181,2.21604 H 2.8430532 c -0.1440423,-0.71468 -0.2216037,-1.45705 -0.2216037,-2.21604 z m 1.1467995,4.87528 h 3.7229429 c 0.3711869,2.02213 0.9695165,3.81159 1.7285094,5.24647 -2.3767,-1.05262 -4.3046529,-2.91963 -5.4514523,-5.24647 z m 3.7229429,-9.75057 H 3.768249 c 1.1467994,-2.32684 3.0747523,-4.19385 5.4514523,-5.24647 -0.7589929,1.43488 -1.3573225,3.22434 -1.7285094,5.24647 z m 6.2104461,15.95548 c -1.030458,0 -2.692486,-2.28252 -3.50134,-6.20491 h 7.008219 c -0.814393,3.92239 -2.476422,6.20491 -3.506879,6.20491 z m 3.883605,-8.86415 H 9.8180316 c -0.06094,-0.70914 -0.1052619,-1.44043 -0.1052619,-2.21604 0,-0.77562 0.044324,-1.50691 0.1052619,-2.21605 h 7.7727524 c 0.06094,0.70914 0.105261,1.44043 0.105261,2.21605 0,0.77561 -0.04986,1.5069 -0.110802,2.21604 z m 0.59833,7.90571 c 0.758994,-1.43488 1.351784,-3.22434 1.72851,-5.24647 h 3.722944 c -1.146801,2.32684 -3.074752,4.19385 -5.451454,5.24647 z m 2.071996,-7.90571 c 0.0554,-0.72576 0.09418,-1.45705 0.09418,-2.21604 0,-0.75899 -0.03878,-1.49029 -0.09418,-2.21605 h 4.304653 c 0.144044,0.71468 0.221603,1.45706 0.221603,2.21605 0,0.75899 -0.07756,1.50136 -0.221603,2.21604 z"
         style="fill:#ffffff;fill-opacity:1;stroke-width:0.05540094"
         inkscape:connector-curvature="0" />
      <g
         style="fill:#ffffff;fill-opacity:1"
         transform="matrix(0.04266017,0.01054555,-0.01054555,0.04266017,5.8900354,234.30527)"
         id="g835">
        <g
           style="fill:#ffffff;fill-opacity:1"
           id="Background" />
        <path
           style="fill:#ffffff;fill-opacity:1"
           inkscape:connector-curvature="0"
           d="m 242.102,327.089 c 0.253,-0.067 0.501,-0.156 0.752,-0.233 20.763,-6.34 42.188,-10.79 63.528,-14.648 47.463,-8.582 95.713,-13.013 143.938,-13.453 65.015,-0.592 130.184,6.246 193.406,21.558 36.021,8.724 71.379,20.201 105.586,34.475 16.003,6.677 32.021,13.412 47.385,21.479 13.396,7.035 26.776,13.979 35.749,26.608 9.934,13.984 8.567,30.109 -1.447,43.735 -20.897,28.434 -44.402,17.723 -70.472,5.117 -49.03,-23.707 -104.79,-41.464 -158.081,-52.669 -60.058,-12.625 -121.66,-17.936 -182.987,-15.431 -52.587,2.148 -104.905,10.07 -155.784,23.53 0,0 -46.586,11.852 -56.342,-29.882 -8.994,-38.473 34.71,-50.171 34.769,-50.186 z"
           id="path817" />
        <path
           style="fill:#ffffff;fill-opacity:1"
           inkscape:connector-curvature="0"
           d="m 265.787,481.089 c 0.218,-0.058 0.431,-0.135 0.647,-0.201 17.85,-5.451 36.27,-9.275 54.615,-12.593 40.805,-7.377 82.285,-11.188 123.745,-11.564 55.894,-0.51 111.921,5.368 166.274,18.532 30.967,7.5 61.364,17.367 90.772,29.639 13.757,5.739 27.528,11.529 40.736,18.466 11.518,6.047 23.021,12.018 30.733,22.875 8.541,12.021 7.366,25.885 -1.243,37.599 -17.967,24.445 -38.173,15.237 -60.586,4.4 -42.152,-20.381 -90.09,-35.648 -135.903,-45.28 -51.632,-10.854 -104.592,-15.42 -157.315,-13.266 -45.21,1.847 -90.188,8.657 -133.93,20.229 0,0 -40.05,10.189 -48.438,-25.689 -7.73,-33.078 29.843,-43.134 29.893,-43.147 z"
           id="path819" />
        <path
           style="fill:#ffffff;fill-opacity:1"
           inkscape:connector-curvature="0"
           d="m 282.517,624.31 c 0.187,-0.05 0.368,-0.114 0.553,-0.172 15.243,-4.653 30.97,-7.921 46.637,-10.753 34.843,-6.299 70.264,-9.553 105.667,-9.875 47.728,-0.435 95.571,4.585 141.984,15.826 26.442,6.405 52.399,14.83 77.512,25.308 11.747,4.902 23.506,9.848 34.785,15.77 9.835,5.164 19.656,10.262 26.244,19.534 7.292,10.266 6.291,22.103 -1.063,32.105 -15.341,20.874 -32.597,13.011 -51.735,3.757 -35.994,-17.402 -76.929,-30.439 -116.05,-38.666 -44.089,-9.269 -89.313,-13.167 -134.333,-11.327 -38.605,1.575 -77.013,7.392 -114.363,17.273 0,0 -34.201,8.7 -41.361,-21.938 -6.603,-28.245 25.48,-36.832 25.523,-36.842 z"
           id="path821" />
      </g>
    </g>
  </g>
</svg>
