<?xml version="1.0" encoding="UTF-8" standalone="no"?>
<!-- Created with Inkscape (http://www.inkscape.org/) -->

<svg
   xmlns:dc="http://purl.org/dc/elements/1.1/"
   xmlns:cc="http://creativecommons.org/ns#"
   xmlns:rdf="http://www.w3.org/1999/02/22-rdf-syntax-ns#"
   xmlns:svg="http://www.w3.org/2000/svg"
   xmlns="http://www.w3.org/2000/svg"
   xmlns:sodipodi="http://sodipodi.sourceforge.net/DTD/sodipodi-0.dtd"
   xmlns:inkscape="http://www.inkscape.org/namespaces/inkscape"
   version="1.1"
   id="svg2"
   width="284"
   height="284"
   viewBox="0 0 284 284"
   sodipodi:docname="small-tile.svg"
   inkscape:export-filename="C:\Users\janch32\source\repos\SpotifyWPW\SpotifyWPW\Assets\Clear-TileSmall.scale-400.png"
   inkscape:export-xdpi="96"
   inkscape:export-ydpi="96"
   inkscape:version="0.92.3 (2405546, 2018-03-11)">
  <metadata
     id="metadata8">
    <rdf:RDF>
      <cc:Work
         rdf:about="">
        <dc:format>image/svg+xml</dc:format>
        <dc:type
           rdf:resource="http://purl.org/dc/dcmitype/StillImage" />
        <dc:title></dc:title>
      </cc:Work>
    </rdf:RDF>
  </metadata>
  <defs
     id="defs6">
    <clipPath
       id="clipPath833"
       clipPathUnits="userSpaceOnUse">
      <path
         inkscape:connector-curvature="0"
         id="path831"
         d="M 0,170.05 H 170.05 V 0 H 0 Z" />
    </clipPath>
    <clipPath
       id="clipPath833-2"
       clipPathUnits="userSpaceOnUse">
      <path
         inkscape:connector-curvature="0"
         id="path831-8"
         d="M 0,170.05 H 170.05 V 0 H 0 Z" />
    </clipPath>
  </defs>
  <sodipodi:namedview
     pagecolor="#ffffff"
     bordercolor="#666666"
     borderopacity="1"
     objecttolerance="10"
     gridtolerance="10"
     guidetolerance="10"
     inkscape:pageopacity="0"
     inkscape:pageshadow="2"
     inkscape:window-width="1920"
     inkscape:window-height="1137"
     id="namedview4"
     showgrid="false"
     fit-margin-top="0"
     fit-margin-left="0"
     fit-margin-right="0"
     fit-margin-bottom="0"
     inkscape:zoom="1.1125147"
     inkscape:cx="20.17913"
     inkscape:cy="62.156857"
     inkscape:window-x="-8"
     inkscape:window-y="-8"
     inkscape:window-maximized="1"
     inkscape:current-layer="svg2" />
  <rect
     style="fill:#1db954;fill-opacity:1;stroke:none;stroke-width:0.62447017;stroke-opacity:1"
     id="rect879"
     width="284"
     height="284"
     x="0"
     y="0" />
  <g
     transform="matrix(0.92544496,0,0,-0.92544496,63.313672,220.68587)"
     inkscape:label="Spotify_Icon_RGB_White"
     id="g825"
     inkscape:export-xdpi="96"
     inkscape:export-ydpi="96">
    <g
       id="g827">
      <g
         clip-path="url(#clipPath833)"
         id="g829">
        <g
           transform="translate(134.5619,94.5284)"
           id="g835">
          <path
             inkscape:connector-curvature="0"
             id="path837"
             style="fill:#ffffff;fill-opacity:1;fill-rule:nonzero;stroke:none"
             d="m 0,0 c -26.994,16.031 -71.52,17.505 -97.289,9.684 -4.139,-1.256 -8.515,1.08 -9.768,5.218 -1.254,4.141 1.079,8.514 5.22,9.772 29.582,8.979 78.756,7.245 109.832,-11.202 3.723,-2.21 4.943,-7.017 2.737,-10.733 C 8.524,-0.983 3.713,-2.21 0,0 m -0.884,-23.744 c -1.894,-3.073 -5.912,-4.037 -8.981,-2.15 -22.504,13.833 -56.822,17.841 -83.447,9.759 -3.452,-1.043 -7.099,0.903 -8.148,4.35 -1.04,3.452 0.907,7.092 4.354,8.142 30.415,9.23 68.226,4.76 94.074,-11.125 3.069,-1.89 4.035,-5.91 2.148,-8.976 m -10.247,-22.803 c -1.505,-2.468 -4.718,-3.241 -7.177,-1.737 -19.665,12.019 -44.417,14.733 -73.567,8.075 -2.809,-0.644 -5.609,1.116 -6.249,3.924 -0.644,2.809 1.11,5.609 3.925,6.25 31.9,7.292 59.263,4.154 81.336,-9.334 2.461,-1.503 3.236,-4.718 1.732,-7.178 M -49.537,74.24 c -46.249,0 -83.743,-37.493 -83.743,-83.742 0,-46.254 37.494,-83.745 83.743,-83.745 46.251,0 83.744,37.491 83.744,83.745 0,46.249 -37.493,83.742 -83.744,83.742" />
        </g>
      </g>
    </g>
  </g>
</svg>
